Coordinates
version=1
nRows=54
nColumns=12
inDegrees=yes

Units are S.I. units (second, meters, Newtons, ...)
Angles are in degrees

endheader
time	SC_y	SC_z	SC_x	AC_y	AC_z	AC_x	GH_y	GH_z	GH_yy	EL_x	PS_y
       0.0              -33.43          4.003          7.055          53.09        -0.9779         -8.264          -4.92          15.27         -145.4          74.79          129.9
  0.006083              -33.43          4.006          7.062          53.09        -0.9806         -8.264         -4.912          15.27         -145.4          74.78          129.9
   0.01217              -33.43          4.009           7.07          53.08        -0.9834         -8.263         -4.903          15.27         -145.4          74.77          129.8
   0.01825              -33.43          4.013          7.079          53.08        -0.9864         -8.263         -4.894          15.26         -145.4          74.76          129.8
   0.02433              -33.43          4.016          7.088          53.08        -0.9896         -8.262         -4.884          15.26         -145.3          74.75          129.8
   0.03042              -33.43           4.02          7.098          53.08         -0.993         -8.262         -4.873          15.25         -145.3          74.74          129.8
    0.0365              -33.43          4.024          7.108          53.08        -0.9967         -8.261         -4.861          15.25         -145.3          74.73          129.8
   0.04258              -33.43          4.028          7.119          53.07         -1.001          -8.26         -4.849          15.24         -145.2          74.72          129.7
   0.04867              -33.43          4.033          7.131          53.07         -1.005          -8.26         -4.836          15.24         -145.2          74.71          129.7
   0.05475              -33.43          4.038          7.144          53.07         -1.009         -8.259         -4.822          15.23         -145.2          74.69          129.7
   0.06083              -33.43          4.043          7.157          53.07         -1.014         -8.258         -4.807          15.23         -145.1          74.68          129.7
   0.06691              -33.43          4.049          7.172          53.06         -1.019         -8.257         -4.791          15.22         -145.1          74.67          129.6
     0.073              -33.43          4.055          7.188          53.06         -1.025         -8.256         -4.773          15.21         -145.0          74.65          129.6
   0.07908              -33.43          4.062          7.205          53.05         -1.031         -8.255         -4.754          15.21         -145.0          74.63          129.5
   0.08516              -33.43          4.069          7.224          53.05         -1.037         -8.254         -4.734           15.2         -144.9          74.61          129.5
   0.09125              -33.43          4.077          7.244          53.05         -1.044         -8.253         -4.712          15.19         -144.8          74.59          129.5
   0.09733              -33.43          4.086          7.265          53.04         -1.052         -8.252         -4.687          15.18         -144.8          74.57          129.4
    0.1034              -33.43          4.095          7.289          53.03         -1.061          -8.25         -4.661          15.17         -144.7          74.55          129.4
    0.1095              -33.43          4.105          7.315          53.03          -1.07         -8.249         -4.632          15.16         -144.6          74.52          129.3
    0.1156              -33.43          4.116          7.344          53.02          -1.08         -8.247         -4.601          15.15         -144.5          74.49          129.3
    0.1217              -33.43          4.128          7.375          53.02         -1.091         -8.245         -4.567          15.13         -144.4          74.46          129.2
    0.1277              -33.43          4.142          7.409          53.01         -1.103         -8.243         -4.529          15.12         -144.3          74.42          129.1
    0.1338              -33.43          4.157          7.447           53.0         -1.116         -8.241         -4.487           15.1         -144.2          74.38          129.0
    0.1399              -33.43          4.173          7.489          52.99         -1.131         -8.238          -4.44          15.08         -144.1          74.34          128.9
     0.146              -33.43          4.191          7.536          52.98         -1.148         -8.236         -4.388          15.06         -143.9          74.29          128.8
    0.1521              -33.43          4.212          7.588          52.97         -1.166         -8.233         -4.331          15.04         -143.7          74.24          128.7
    0.1582              -33.43          4.235          7.647          52.95         -1.187         -8.229         -4.266          15.01         -143.5          74.18          128.6
    0.1642              -33.43           4.26          7.713          52.94          -1.21         -8.225         -4.194          14.98         -143.3          74.11          128.5
    0.1703              -33.43          4.289          7.787          52.92         -1.236         -8.221         -4.111          14.95         -143.1          74.03          128.3
    0.1764              -33.42          4.322          7.871           52.9         -1.266         -8.216         -4.018          14.91         -142.8          73.95          128.1
    0.1825              -33.42           4.36          7.967          52.88           -1.3          -8.21         -3.912          14.87         -142.5          73.85          127.9
    0.1886              -33.42          4.403          8.078          52.85         -1.339         -8.204          -3.79          14.82         -142.2          73.74          127.7
    0.1947              -33.42          4.453          8.206          52.82         -1.383         -8.196         -3.649          14.76         -141.8          73.61          127.4
    0.2007              -33.42          4.511          8.354          52.79         -1.436         -8.187         -3.485           14.7         -141.3          73.45          127.1
    0.2068              -33.42          4.579          8.527          52.75         -1.497         -8.177         -3.293          14.62         -140.7          73.27          126.7
    0.2129              -33.42          4.659          8.732           52.7         -1.569         -8.165         -3.067          14.53         -140.1          73.07          126.3
     0.219              -33.42          4.754          8.975          52.65         -1.655         -8.151         -2.799          14.42         -139.3          72.82          125.8
    0.2251              -33.41          4.868          9.266          52.58         -1.757         -8.134         -2.477          14.29         -138.4          72.52          125.1
    0.2312              -33.41          5.005          9.618           52.5         -1.881         -8.113         -2.088          14.13         -137.2          72.16          124.4
    0.2372              -33.41          5.174          10.05           52.4         -2.033         -8.088         -1.612          13.94         -135.9          71.71          123.5
    0.2433               -33.4          5.381          10.58          52.28          -2.22         -8.056         -1.025          13.71         -134.2          71.17          122.3
    0.2494               -33.4           5.64          11.24          52.13         -2.454         -8.017        -0.2932          13.41         -132.0          70.49          120.9
    0.2555              -33.39          5.967          12.08          51.94         -2.748         -7.968         0.6289          13.04         -129.4          69.63          119.1
    0.2616              -33.38          6.382          13.14          51.69         -3.122         -7.905          1.801          12.57         -126.0          68.54          116.8
    0.2677              -33.37          6.912           14.5          51.38           -3.6         -7.825          3.301          11.97         -121.6          67.15          113.9
    0.2737              -33.36          7.594          16.24          50.98         -4.215         -7.723          5.227          11.19         -116.1          65.36          110.2
    0.2798              -33.34          8.464          18.47          50.47         -4.999         -7.591          7.686           10.2         -109.0          63.08          105.4
    0.2859              -33.32          9.558          21.26          49.83         -5.985         -7.426          10.78           8.96         -100.0          60.21          99.46
     0.292               -33.3          10.89          24.68          49.05         -7.187         -7.225          14.55          7.444          -89.1          56.71          92.16
    0.2981              -33.26          12.44          28.63          48.14         -8.581         -6.992          18.92          5.687         -76.45          52.65           83.7
    0.3042              -33.23          14.11          32.91          47.16         -10.09          -6.74          23.65          3.785         -62.77          48.26          74.53
    0.3102               -33.2          15.78          37.19          46.18          -11.6         -6.488          28.38          1.883         -49.08          43.87          65.37
    0.3163              -33.17          17.33          41.15          45.28         -12.99         -6.255          32.74         0.1259         -36.43          39.81          56.91
    0.3224              -33.14          18.66          44.56          44.49         -14.19         -6.054          36.51          -1.39         -25.53          36.31          49.61
